<svg version="1" xmlns="http://www.w3.org/2000/svg" width="356" height="356" viewBox="0 0 267.000000 267.000000"><path d="M33.5 37.6c-4.4 2.3-7.2 5.2-9.5 9.8-1.9 3.9-2 7.6-3 84.6-.7 56.3-.7 81.7.1 84.3 1.3 4.7 7.2 11.5 11.6 13.4 7.7 3.2 17.5 0 22.7-7.4 3.5-5 4.4-12.7 4.5-37.4.1-16.5.8-20.3 4.9-25.8 4.1-5.5 8.9-7.1 22.3-7.1 16 0 21.3 2.1 26 10.3 2.3 4.1 2.4 5.1 2.9 30.2.5 27.9.8 29.2 6.2 34.1 7.9 7.2 18.1 7.3 25.6.1 7-6.6 6.6-2.9 7.4-70.7.5-33.8.7-71.7.6-84.2l-.3-22.6-3.1-3.9c-5-6.2-8.9-8.3-15.2-8.3-7.3 0-13.2 3.4-16.9 9.8l-2.8 4.7-.5 24c-.5 22.7-.6 24.3-2.9 28.8-1.5 3-3.9 5.8-6.4 7.5-3.8 2.5-4.8 2.7-17.6 3-12.5.3-13.9.1-18.1-2-2.6-1.3-5.7-4.1-7.5-6.6l-3-4.4-.5-26.1c-.4-19.5-.8-26.8-1.9-28.7-2-3.6-6.2-8-9.3-9.6-3.6-1.9-12.6-1.8-16.3.2zM216.4 39.6c-4.3 2.1-4 1.7-31.5 39.4l-24.4 33.5-.6 12c-.4 6.6-.8 19.5-.8 28.7l-.1 16.7 4.3-1.9c7-3.2 13.6-2.1 18.5 3.3 1.3 1.4 8.8 14.3 16.5 28.8 16.1 29.8 17.9 31.9 27 32.7 7.4.6 13.6-2.2 17.4-7.9 2.4-3.7 2.8-5.2 2.8-11.3v-7.1l-15.8-28.7c-8.7-15.8-16.7-31.4-17.8-34.5-4.3-12.2-3.3-28.7 2.5-40.1 1.3-2.6 7.6-12.1 14-21.1 6.4-9.1 11.9-17.5 12.2-18.8 1.3-4.9-.1-14-2.6-17.7-4.8-6.9-14.4-9.6-21.6-6z"/></svg>